<svg xmlns="http://www.w3.org/2000/svg" width="21.663" height="20.927" viewBox="0 0 21.663 20.927"><defs><style>.a{fill:#136ef1;}.b{fill:#1689fc;}</style></defs><g transform="matrix(0.105, -0.995, 0.995, 0.105, -0.183, 18.839)"><path class="a" d="M51.06,2.98,48.58.5a1.8,1.8,0,0,0-2.492,0l-.4.41c-.014.014-.433.426-.433.445a.569.569,0,0,0,.023.8l4.13,4.13a.565.565,0,0,0,.819,0l.831-.831A1.735,1.735,0,0,0,51.06,2.98Z" transform="translate(-43.348 0)"/><path class="a" d="M351.979,304.535l-2.48-2.48a1.773,1.773,0,0,0-2.468,0l-.409.421-.421.409a.566.566,0,0,0,0,.819l4.141,4.141a.578.578,0,0,0,.831,0l.4-.409.409-.421A1.744,1.744,0,0,0,351.979,304.535Z" transform="translate(-332.531 -289.795)"/><path class="b" d="M19.039,40.057l-.4.409a6.354,6.354,0,0,1-9.032.07L1.851,32.754a6.319,6.319,0,0,1,0-8.938.451.451,0,0,0,.105-.105l.386-.386,4.949,4.949-.234.246-.175.175c-.374.41-.679.667-.679,1.24a1.356,1.356,0,0,0,.386.948l1.954,1.954L11.481,35.8a1.364,1.364,0,0,0,1.884,0l.3-.292.421-.409Z" transform="translate(0 -22.416)"/><path class="b" d="M143.32,269.486l4.949,4.96-.4.409a6.354,6.354,0,0,1-9.032.07l-4.366-4.389v-.012l3.3-3.3,2.938,2.962a1.364,1.364,0,0,0,1.884,0l.3-.292Z" transform="translate(-129.23 -256.806)"/></g></svg>