<svg xmlns="http://www.w3.org/2000/svg" width="100" height="100" viewBox="0 0 100 100"><defs><style>.a{fill:#a8cbff;}.b{fill:#092e65;}.c{fill:#efc51e;}.d{fill:#c7b037;}</style></defs><g transform="translate(-6.5 -6.5)"><g transform="translate(6.5 6.5)"><path class="a" d="M57.73,48.9a1.523,1.523,0,0,1-1.522-1.522v-37.1a1.522,1.522,0,1,1,3.043,0v37.1A1.522,1.522,0,0,1,57.73,48.9Z" transform="translate(-12.984 -6.793)"/><path class="a" d="M69.814,48.9a1.522,1.522,0,0,1-1.522-1.522v-37.1a1.522,1.522,0,0,1,3.043,0v37.1A1.523,1.523,0,0,1,69.814,48.9Z" transform="translate(-14.56 -6.793)"/><path class="a" d="M43.914,53.1a1.523,1.523,0,0,1-1.522-1.523V20.815H32.361a1.523,1.523,0,0,1-1.522-1.522V10.272a1.522,1.522,0,0,1,3.043,0v7.5H43.914a1.523,1.523,0,0,1,1.522,1.522V51.576A1.523,1.523,0,0,1,43.914,53.1Z" transform="translate(-9.675 -6.793)"/><path class="a" d="M81.9,53.1a1.523,1.523,0,0,1-1.522-1.523V19.293A1.523,1.523,0,0,1,81.9,17.772H91.928v-7.5a1.522,1.522,0,0,1,3.043,0v9.022a1.523,1.523,0,0,1-1.522,1.522H83.418V51.576A1.523,1.523,0,0,1,81.9,53.1Z" transform="translate(-16.136 -6.793)"/><circle class="a" cx="2.609" cy="2.609" r="2.609" transform="translate(20.077)"/><circle class="a" cx="2.609" cy="2.609" r="2.609" transform="translate(42.137)"/><circle class="a" cx="2.609" cy="2.609" r="2.609" transform="translate(52.645)"/><circle class="a" cx="2.609" cy="2.609" r="2.609" transform="translate(74.705)"/><path class="a" d="M111.706,59.251H74.6a1.522,1.522,0,0,1,0-3.043h37.1a1.522,1.522,0,1,1,0,3.043Z" transform="translate(-15.185 -12.984)"/><path class="a" d="M111.706,71.335H74.6a1.522,1.522,0,1,1,0-3.043h37.1a1.522,1.522,0,0,1,0,3.043Z" transform="translate(-15.185 -14.56)"/><path class="a" d="M102.054,45.436H69.772a1.522,1.522,0,0,1,0-3.043h30.763V32.361a1.523,1.523,0,0,1,1.522-1.522h9.02a1.522,1.522,0,0,1,0,3.043h-7.5V43.914a1.523,1.523,0,0,1-1.523,1.522Z" transform="translate(-14.554 -9.675)"/><path class="a" d="M111.076,94.972h-9.022a1.523,1.523,0,0,1-1.522-1.522V83.418H69.772a1.522,1.522,0,0,1,0-3.043h32.284a1.523,1.523,0,0,1,1.522,1.522V91.928h7.5a1.522,1.522,0,0,1,0,3.043Z" transform="translate(-14.554 -16.136)"/><circle class="a" cx="2.609" cy="2.609" r="2.609" transform="translate(94.783 20.077)"/><circle class="a" cx="2.609" cy="2.609" r="2.609" transform="translate(94.783 42.137)"/><circle class="a" cx="2.609" cy="2.609" r="2.609" transform="translate(94.783 52.645)"/><circle class="a" cx="2.609" cy="2.609" r="2.609" transform="translate(94.783 74.705)"/><path class="a" d="M69.814,113.226a1.522,1.522,0,0,1-1.522-1.522V74.6a1.522,1.522,0,0,1,3.043,0v37.1A1.523,1.523,0,0,1,69.814,113.226Z" transform="translate(-14.56 -15.185)"/><path class="a" d="M57.73,113.226a1.523,1.523,0,0,1-1.522-1.522V74.6a1.522,1.522,0,0,1,3.043,0v37.1A1.522,1.522,0,0,1,57.73,113.226Z" transform="translate(-12.984 -15.185)"/><path class="a" d="M93.45,112.6a1.522,1.522,0,0,1-1.522-1.522v-7.5H81.9a1.523,1.523,0,0,1-1.522-1.522V69.772a1.522,1.522,0,0,1,3.043,0v30.763H93.45a1.523,1.523,0,0,1,1.522,1.522v9.02a1.523,1.523,0,0,1-1.522,1.52Z" transform="translate(-16.136 -14.554)"/><path class="a" d="M32.361,112.6a1.523,1.523,0,0,1-1.522-1.522v-9.02a1.523,1.523,0,0,1,1.522-1.522H42.392V69.772a1.522,1.522,0,0,1,3.043,0v32.284a1.523,1.523,0,0,1-1.522,1.522H33.882v7.5a1.522,1.522,0,0,1-1.522,1.52Z" transform="translate(-9.675 -14.554)"/><circle class="a" cx="2.609" cy="2.609" r="2.609" transform="translate(74.705 94.783)"/><circle class="a" cx="2.609" cy="2.609" r="2.609" transform="translate(52.645 94.783)"/><circle class="a" cx="2.609" cy="2.609" r="2.609" transform="translate(42.137 94.783)"/><circle class="a" cx="2.609" cy="2.609" r="2.609" transform="translate(20.077 94.783)"/><path class="a" d="M47.373,71.335h-37.1a1.522,1.522,0,1,1,0-3.043h37.1a1.522,1.522,0,0,1,0,3.043Z" transform="translate(-6.793 -14.56)"/><path class="a" d="M47.373,59.251h-37.1a1.522,1.522,0,1,1,0-3.043h37.1a1.522,1.522,0,0,1,0,3.043Z" transform="translate(-6.793 -12.984)"/><path class="a" d="M19.293,94.972H10.272a1.522,1.522,0,1,1,0-3.043h7.5V81.9a1.523,1.523,0,0,1,1.522-1.522H51.576a1.522,1.522,0,1,1,0,3.043H20.815V93.45a1.523,1.523,0,0,1-1.522,1.522Z" transform="translate(-6.793 -16.136)"/><path class="a" d="M51.576,45.436H19.293a1.523,1.523,0,0,1-1.522-1.522V33.882h-7.5a1.522,1.522,0,1,1,0-3.043h9.022a1.523,1.523,0,0,1,1.522,1.522V42.392H51.576a1.522,1.522,0,1,1,0,3.043Z" transform="translate(-6.793 -9.675)"/><circle class="a" cx="2.609" cy="2.609" r="2.609" transform="translate(0 74.705)"/><circle class="a" cx="2.609" cy="2.609" r="2.609" transform="translate(0 52.645)"/><circle class="a" cx="2.609" cy="2.609" r="2.609" transform="translate(0 42.137)"/><circle class="a" cx="2.609" cy="2.609" r="2.609" transform="translate(0 20.077)"/></g><path class="b" d="M35.25,35.25h50v50h-50Z" transform="translate(-3.75 -3.75)"/><path class="c" d="M0,0H34.348V34.348H0Z" transform="translate(73.674 39.326) rotate(90)"/><path class="d" d="M77.522,64.838A1.523,1.523,0,0,1,76,63.317V54.73a1.522,1.522,0,0,1,3.043,0v8.587a1.523,1.523,0,0,1-1.522,1.522Z" transform="translate(-9.065 -6.092)"/></g></svg>