<svg xmlns="http://www.w3.org/2000/svg" width="17.661" height="19.397" viewBox="0 0 17.661 19.397"><defs><style>.a{fill:#fff;}</style></defs><g transform="translate(0)"><g transform="translate(4.722)"><g transform="translate(0)"><path class="a" d="M136.169,9.128a.518.518,0,0,0-.467-.367h-2.054V.626A.578.578,0,0,0,133.134,0H131.08a.578.578,0,0,0-.514.626V8.761h-2.054a.519.519,0,0,0-.467.367.734.734,0,0,0,.081.671l3.6,5.007a.455.455,0,0,0,.772,0l3.6-5.007A.733.733,0,0,0,136.169,9.128Z" transform="translate(-127.998)"/></g></g><g transform="translate(0 12.224)"><path class="a" d="M31.306,352v4.3H18.355V352H16v5.739a1.325,1.325,0,0,0,1.177,1.435H32.484a1.324,1.324,0,0,0,1.177-1.435V352Z" transform="translate(-16 -352)"/></g></g></svg>